<?xml version="1.0" encoding="utf-8"?>
<svg width="512" height="512" viewBox="0 0 512 512" fill="none" xmlns="http://www.w3.org/2000/svg">
  <rect width="512" height="512" rx="128" fill="#1E40AF"/>
  <path d="M376 176H328V144C328 130.768 317.232 120 304 120H208C194.768 120 184 130.768 184 144V176H136C122.768 176 112 186.768 112 200V368C112 381.232 122.768 392 136 392H376C389.232 392 400 381.232 400 368V200C400 186.768 389.232 176 376 176ZM216 144H296V176H216V144ZM368 368H144V208H368V368Z" fill="white"/>
  <rect x="168" y="240" width="176" height="96" rx="8" fill="#FCD34D"/>
  <rect x="184" y="256" width="16" height="64" fill="#1E40AF"/>
  <rect x="216" y="256" width="16" height="64" fill="#1E40AF"/>
  <rect x="248" y="256" width="16" height="64" fill="#1E40AF"/>
  <rect x="280" y="256" width="16" height="64" fill="#1E40AF"/>
  <rect x="312" y="256" width="16" height="64" fill="#1E40AF"/>
</svg>